<svg version="1.2" baseProfile="tiny-ps" xmlns="http://www.w3.org/2000/svg" viewBox="0 0 657 414" width="657" height="414">
	<title>illustration-hero-svg</title>
	<defs>
		<linearGradient id="grd1" gradientUnits="userSpaceOnUse"  x1="326527.058" y1="104534.614" x2="8430.088" y2="42325.97">
			<stop offset="0" stop-color="#151515"  />
			<stop offset="100" stop-color="#3d3d3d"  />
		</linearGradient>
		<clipPath clipPathUnits="userSpaceOnUse" id="cp1">
			<path d="M60.53 36.8C60.53 32.38 64.11 28.8 68.53 28.8L588.53 28.8C592.95 28.8 596.53 32.38 596.53 36.8L596.53 366.8C596.53 371.22 592.95 374.8 588.53 374.8L68.53 374.8C64.11 374.8 60.53 371.22 60.53 366.8L60.53 36.8Z" />
		</clipPath>
		<clipPath clipPathUnits="userSpaceOnUse" id="cp2">
			<path d="M60.53 36.8C60.53 32.38 64.11 28.8 68.53 28.8L588.53 28.8C592.95 28.8 596.53 32.38 596.53 36.8L596.53 366.8C596.53 371.22 592.95 374.8 588.53 374.8L68.53 374.8C64.11 374.8 60.53 371.22 60.53 366.8L60.53 36.8Z" />
		</clipPath>
	</defs>
	<style>
		tspan { white-space:pre }
		.shp0 { fill: #000000 } 
		.shp1 { fill: #777777 } 
		.shp2 { fill: url(#grd1) } 
		.shp3 { opacity: 0.102;fill: #2a2a2a } 
		.shp4 { fill: #e8eaf6 } 
		.shp5 { fill: #5267df } 
		.shp6 { opacity: 0.243;fill: #ffffff } 
		.shp7 { opacity: 0.106;fill: #ffffff } 
		.shp8 { opacity: 0.749;fill: #ffffff } 
		.shp9 { opacity: 0.251;fill: #ffffff } 
		.shp10 { fill: #ffffff } 
		.shp11 { opacity: 0.502;fill: #242a45 } 
		.shp12 { fill: #f98e5d } 
		.shp13 { opacity: 0.251;fill: #242a45 } 
		.shp14 { fill: #6ac6d6 } 
		.shp15 { fill: #a47ed4 } 
		.shp16 { fill: #ec7878 } 
	</style>
	<g id="Layer">
		<g id="Layer">
			<g id="Layer">
				<path id="c" class="shp0" d="M39.5 41.5C39.5 27.14 51.14 15.5 65.5 15.5L591.5 15.5C605.86 15.5 617.5 27.14 617.5 41.5L617.5 374.5C617.5 388.86 605.86 400.5 591.5 400.5L65.5 400.5C51.14 400.5 39.5 388.86 39.5 374.5L39.5 41.5Z" />
				<path id="c" class="shp1" d="M39.5 41.5C39.5 27.14 51.14 15.5 65.5 15.5L591.5 15.5C605.86 15.5 617.5 27.14 617.5 41.5L617.5 374.5C617.5 388.86 605.86 400.5 591.5 400.5L65.5 400.5C51.14 400.5 39.5 388.86 39.5 374.5L39.5 41.5Z" />
			</g>
			<path id="Layer" class="shp2" d="M41.5 42.5C41.5 28.69 52.69 17.5 66.5 17.5L590.73 17.5C604.54 17.5 615.73 28.69 615.73 42.5L615.73 374.37C615.73 388.17 604.54 399.37 590.73 399.37L66.5 399.37C52.69 399.37 41.5 388.17 41.5 374.37L41.5 42.5Z" />
			<g id="Layer">
				<path id="Layer" class="shp3" d="M93.53 36.8C93.53 34.04 95.77 31.8 98.53 31.8L559.99 31.8C562.75 31.8 564.99 34.04 564.99 36.8L564.99 380.56C564.99 383.32 562.75 385.56 559.99 385.56L98.53 385.56C95.77 385.56 93.53 383.32 93.53 380.56L93.53 36.8Z" />
				<path id="e" class="shp4" d="M60.53 42.8C60.53 38.38 64.11 34.8 68.53 34.8L588.53 34.8C592.95 34.8 596.53 38.38 596.53 42.8L596.53 372.8C596.53 377.22 592.95 380.8 588.53 380.8L68.53 380.8C64.11 380.8 60.53 377.22 60.53 372.8L60.53 42.8Z" />
				<g id="Clip-Path" clip-path="url(#cp1)">
					<g id="Layer">
						<path id="Layer" fill-rule="evenodd" class="shp5" d="M57 35L604 35L604 94L57 94L57 35Z" />
						<g id="Layer">
							<path id="Layer" class="shp6" d="M99 81C90.15 81 83 73.85 83 65C83 56.15 90.15 49 99 49C107.85 49 115 56.15 115 65C115 73.85 107.85 81 99 81Z" />
							<path id="Layer" class="shp7" d="M560 81C551.15 81 544 73.85 544 65C544 56.15 551.15 49 560 49C568.85 49 576 56.15 576 65C576 73.85 568.85 81 560 81Z" />
							<g id="Layer">
								<path id="Layer" class="shp8" d="M130 58C130 56.34 131.34 55 133 55L247 55C248.66 55 250 56.34 250 58L250 58C250 59.66 248.66 61 247 61L133 61C131.34 61 130 59.66 130 58L130 58Z" />
								<path id="Layer" class="shp9" d="M130 72C130 70.34 131.34 69 133 69L191 69C192.66 69 194 70.34 194 72L194 72C194 73.66 192.66 75 191 75L133 75C131.34 75 130 73.66 130 72L130 72Z" />
							</g>
						</g>
					</g>
				</g>
				<g id="Clip-Path" clip-path="url(#cp2)">
					<g id="Layer">
						<g id="Layer">
							<path id="Layer" class="shp10" d="M117.53 135.8C117.53 131.38 121.11 127.8 125.53 127.8L370.53 127.8C374.95 127.8 378.53 131.38 378.53 135.8L378.53 435.8C378.53 440.22 374.95 443.8 370.53 443.8L125.53 443.8C121.11 443.8 117.53 440.22 117.53 435.8L117.53 135.8Z" />
							<path id="Layer" class="shp10" d="M412.53 135.8C412.53 131.38 416.11 127.8 420.53 127.8L532.53 127.8C536.95 127.8 540.53 131.38 540.53 135.8L540.53 435.8C540.53 440.22 536.95 443.8 532.53 443.8L420.53 443.8C416.11 443.8 412.53 440.22 412.53 435.8L412.53 135.8Z" />
							<path id="Layer" class="shp11" d="M196 169C196 167.34 197.34 166 199 166L313 166C314.66 166 316 167.34 316 169L316 169C316 170.66 314.66 172 313 172L199 172C197.34 172 196 170.66 196 169L196 169Z" />
						</g>
					</g>
				</g>
			</g>
		</g>
		<g id="Layer">
			<path id="Layer" class="shp12" d="M165 192C156.15 192 149 184.85 149 176C149 167.15 156.15 160 165 160C173.85 160 181 167.15 181 176C181 184.85 173.85 192 165 192Z" />
			<path id="Layer" class="shp13" d="M433 153C433 151.34 434.34 150 436 150L518 150C519.66 150 521 151.34 521 153L521 153C521 154.66 519.66 156 518 156L436 156C434.34 156 433 154.66 433 153L433 153Z" />
			<path id="Layer" class="shp13" d="M433 173C433 171.34 434.34 170 436 170L518 170C519.66 170 521 171.34 521 173L521 173C521 174.66 519.66 176 518 176L436 176C434.34 176 433 174.66 433 173L433 173Z" />
			<path id="Layer" class="shp13" d="M433 193C433 191.34 434.34 190 436 190L518 190C519.66 190 521 191.34 521 193L521 193C521 194.66 519.66 196 518 196L436 196C434.34 196 433 194.66 433 193L433 193Z" />
			<path id="Layer" class="shp13" d="M433 213C433 211.34 434.34 210 436 210L518 210C519.66 210 521 211.34 521 213L521 213C521 214.66 519.66 216 518 216L436 216C434.34 216 433 214.66 433 213L433 213Z" />
			<path id="Layer" class="shp13" d="M433 247C433 245.34 434.34 244 436 244L518 244C519.66 244 521 245.34 521 247L521 247C521 248.66 519.66 250 518 250L436 250C434.34 250 433 248.66 433 247L433 247Z" />
			<path id="Layer" class="shp13" d="M433 267C433 265.34 434.34 264 436 264L518 264C519.66 264 521 265.34 521 267L521 267C521 268.66 519.66 270 518 270L436 270C434.34 270 433 268.66 433 267L433 267Z" />
			<path id="Layer" class="shp13" d="M433 287C433 285.34 434.34 284 436 284L518 284C519.66 284 521 285.34 521 287L521 287C521 288.66 519.66 290 518 290L436 290C434.34 290 433 288.66 433 287L433 287Z" />
			<path id="Layer" class="shp13" d="M196 183C196 181.34 197.34 180 199 180L257 180C258.66 180 260 181.34 260 183L260 183C260 184.66 258.66 186 257 186L199 186C197.34 186 196 184.66 196 183L196 183Z" />
		</g>
		<g id="Layer">
			<path id="Layer" class="shp14" d="M165 248C156.15 248 149 240.85 149 232C149 223.15 156.15 216 165 216C173.85 216 181 223.15 181 232C181 240.85 173.85 248 165 248Z" />
			<path id="Layer" class="shp11" d="M196 225C196 223.34 197.34 222 199 222L313 222C314.66 222 316 223.34 316 225L316 225C316 226.66 314.66 228 313 228L199 228C197.34 228 196 226.66 196 225L196 225Z" />
			<path id="Layer" class="shp13" d="M196 239C196 237.34 197.34 236 199 236L257 236C258.66 236 260 237.34 260 239L260 239C260 240.66 258.66 242 257 242L199 242C197.34 242 196 240.66 196 239L196 239Z" />
		</g>
		<g id="Layer">
			<path id="Layer" class="shp15" d="M165 304C156.15 304 149 296.85 149 288C149 279.15 156.15 272 165 272C173.85 272 181 279.15 181 288C181 296.85 173.85 304 165 304Z" />
			<path id="Layer" class="shp11" d="M196 281C196 279.34 197.34 278 199 278L313 278C314.66 278 316 279.34 316 281L316 281C316 282.66 314.66 284 313 284L199 284C197.34 284 196 282.66 196 281L196 281Z" />
			<path id="Layer" class="shp13" d="M196 295C196 293.34 197.34 292 199 292L257 292C258.66 292 260 293.34 260 295L260 295C260 296.66 258.66 298 257 298L199 298C197.34 298 196 296.66 196 295L196 295Z" />
		</g>
		<g id="Layer">
			<path id="Layer" class="shp16" d="M165 360C156.15 360 149 352.85 149 344C149 335.15 156.15 328 165 328C173.85 328 181 335.15 181 344C181 352.85 173.85 360 165 360Z" />
			<path id="Layer" class="shp11" d="M196 337C196 335.34 197.34 334 199 334L313 334C314.66 334 316 335.34 316 337L316 337C316 338.66 314.66 340 313 340L199 340C197.34 340 196 338.66 196 337L196 337Z" />
			<path id="Layer" class="shp13" d="M196 351C196 349.34 197.34 348 199 348L257 348C258.66 348 260 349.34 260 351L260 351C260 352.66 258.66 354 257 354L199 354C197.34 354 196 352.66 196 351L196 351Z" />
		</g>
	</g>
</svg>